<svg version="1.1" id="Layer_1" xmlns="http://www.w3.org/2000/svg" xmlns:xlink="http://www.w3.org/1999/xlink" x="0px" y="0px"
	 width="100%" viewBox="0 0 4000 2250" enable-background="new 0 0 4000 2250" xml:space="preserve">
<path fill="#FFFFFF" opacity="1.000000" stroke="none" 
	d="
M3730.000000,2252.000000 
	C2486.666992,2252.000000 1244.334106,2252.000000 2.000833,2252.000000 
	C2.000556,1502.000610 2.000556,752.001160 2.000278,2.001337 
	C1335.332397,2.000891 2668.664795,2.000891 4001.997803,2.000445 
	C4001.998535,751.998779 4001.998535,1501.997559 4001.999268,2251.998047 
	C3911.666748,2252.000000 3821.333252,2252.000000 3730.000000,2252.000000 
M1608.342896,1142.139526 
	C1604.059204,1145.684204 1599.146240,1148.698608 1595.620728,1152.882202 
	C1587.911377,1162.030518 1581.382812,1172.191528 1573.487183,1181.160278 
	C1564.665771,1191.180542 1554.395508,1199.704224 1541.579712,1204.469727 
	C1531.576538,1208.189331 1524.414673,1206.440918 1517.270630,1198.681763 
	C1510.943970,1191.810425 1509.986938,1183.243408 1509.719971,1174.508789 
	C1508.609619,1138.188843 1514.353027,1102.854980 1526.499878,1068.723999 
	C1531.492065,1054.696899 1538.299561,1041.276978 1544.869263,1027.868896 
	C1547.640869,1022.212219 1552.972290,1018.192993 1559.620728,1020.196899 
	C1566.205811,1022.181702 1566.297852,1028.617310 1566.259644,1034.344849 
	C1566.204102,1042.666382 1565.449951,1051.004883 1565.791382,1059.303223 
	C1566.634521,1079.790039 1582.170654,1090.378174 1601.697388,1084.246338 
	C1615.291382,1079.977539 1623.400391,1070.174438 1627.649658,1057.298706 
	C1632.564453,1042.406860 1634.400635,1027.184326 1632.538696,1011.247314 
	C1628.278320,974.778320 1595.723022,951.983582 1560.734131,952.610107 
	C1539.770874,952.985474 1521.700806,962.179443 1506.435669,976.874817 
	C1487.793701,994.821045 1475.314331,1016.602112 1466.009766,1040.372192 
	C1451.562378,1077.280518 1444.490967,1115.722656 1443.784912,1155.262695 
	C1443.356812,1179.232666 1444.295532,1203.180786 1452.432983,1226.163452 
	C1465.366211,1262.691406 1503.835327,1290.162964 1547.733032,1278.885254 
	C1594.153687,1266.959473 1622.768066,1236.668457 1635.364380,1190.950806 
	C1637.272949,1184.023682 1637.758057,1176.463501 1637.534668,1169.238403 
	C1637.008423,1152.221558 1626.026001,1141.717041 1608.342896,1142.139526 
M1923.718750,1255.541260 
	C1950.136475,1248.927612 1969.403442,1232.958374 1982.434448,1209.504150 
	C2002.922607,1172.627686 2008.556763,1132.956543 2001.408203,1091.770508 
	C1997.569946,1069.657471 1985.955444,1051.526855 1966.351196,1039.372559 
	C1941.888550,1024.205933 1915.041748,1018.860535 1886.884033,1022.650391 
	C1862.766357,1025.896362 1846.142334,1039.927490 1838.724365,1063.464844 
	C1836.354492,1070.984863 1835.136108,1078.990601 1834.371582,1086.869263 
	C1832.480347,1106.357666 1831.049194,1125.893311 1829.630615,1145.424316 
	C1827.755981,1171.233398 1825.381958,1197.032227 1824.485474,1222.879272 
	C1823.481323,1251.833740 1823.673584,1280.838257 1823.854004,1309.817871 
	C1823.892334,1315.963989 1825.649902,1322.242676 1827.468628,1328.199707 
	C1829.979126,1336.422729 1836.684082,1340.352295 1844.687134,1341.466797 
	C1855.299072,1342.944580 1864.722900,1339.805298 1871.131592,1330.941528 
	C1874.783447,1325.890625 1877.761597,1320.125366 1879.922485,1314.268433 
	C1885.255005,1299.815430 1887.193359,1284.661865 1887.721191,1269.307495 
	C1887.890381,1264.383667 1888.305420,1259.468384 1888.609619,1254.520142 
	C1900.256104,1254.931274 1911.109375,1255.314331 1923.718750,1255.541260 
M1165.680420,1285.073486 
	C1165.693970,1292.066040 1165.479248,1299.068726 1165.794312,1306.047729 
	C1166.038940,1311.468872 1168.732666,1314.272217 1172.647095,1314.180054 
	C1176.548340,1314.088135 1179.701782,1311.012695 1179.601929,1306.099487 
	C1179.280884,1290.310669 1181.093262,1274.454712 1178.382690,1259.844727 
	C1189.176025,1253.073242 1200.015381,1247.201538 1209.772461,1239.886353 
	C1219.232178,1232.794067 1223.719482,1222.501099 1223.759033,1210.385498 
	C1223.783813,1202.824707 1220.617310,1197.133789 1213.740723,1194.724243 
	C1207.270386,1192.457031 1200.196655,1190.270630 1193.508179,1190.586182 
	C1175.911987,1191.416504 1158.515991,1194.199585 1142.361938,1202.012451 
	C1139.820557,1203.241577 1137.179321,1204.264404 1134.503296,1205.417603 
	C1134.503296,1200.768799 1134.113281,1196.736450 1134.568604,1192.802002 
	C1136.930908,1172.392944 1139.514648,1152.009644 1142.010254,1131.615845 
	C1144.466187,1111.545044 1147.394653,1091.516602 1149.223145,1071.388550 
	C1151.108276,1050.638184 1153.092407,1029.810913 1148.383423,1009.046936 
	C1146.478027,1000.644531 1142.781372,993.476196 1136.935181,987.317322 
	C1122.440430,972.047241 1104.393799,973.293396 1092.262329,990.374817 
	C1084.233887,1001.679016 1079.055420,1014.406982 1076.486572,1027.796265 
	C1072.994385,1045.998901 1070.788086,1064.459106 1068.358521,1082.852173 
	C1064.408081,1112.758667 1060.449829,1142.668945 1057.023804,1172.638062 
	C1054.793213,1192.150269 1053.622925,1211.787354 1059.925903,1230.919067 
	C1069.003052,1258.471069 1091.008301,1274.133057 1120.080078,1274.382568 
	C1133.648804,1274.499023 1146.386841,1271.304077 1158.846558,1266.367676 
	C1160.857544,1265.570923 1163.007935,1265.125854 1165.680176,1264.347534 
	C1165.680176,1271.168335 1165.680176,1277.150269 1165.680420,1285.073486 
M2254.646973,1042.821655 
	C2253.541504,1040.774902 2252.568604,1038.642578 2251.308838,1036.695801 
	C2244.668213,1026.432007 2235.256592,1021.998840 2223.151855,1023.957825 
	C2212.940674,1025.610352 2205.688232,1033.641968 2203.927979,1046.679565 
	C2201.579346,1064.074585 2199.201660,1081.555176 2198.518066,1099.064575 
	C2197.480225,1125.661499 2197.858643,1152.314453 2197.713867,1178.944092 
	C2197.694092,1182.594238 2197.830078,1186.293945 2198.397705,1189.891113 
	C2203.598877,1222.842285 2240.229248,1229.826538 2259.661865,1213.543335 
	C2265.480957,1208.667358 2268.965820,1202.377930 2271.765625,1195.554810 
	C2278.578613,1178.952637 2285.346924,1162.332275 2292.219482,1145.754883 
	C2293.518311,1142.622437 2295.215820,1139.655396 2297.679443,1134.701904 
	C2297.679443,1150.423950 2297.397949,1163.667969 2297.791016,1176.891846 
	C2298.006836,1184.152344 2298.718994,1191.523926 2300.318115,1198.594360 
	C2305.533203,1221.655396 2322.309570,1233.170898 2345.792725,1230.409790 
	C2353.683105,1229.481934 2357.055664,1226.199585 2357.643799,1218.514282 
	C2357.871582,1215.537598 2357.768799,1212.515381 2357.572998,1209.530029 
	C2356.531494,1193.657349 2354.698486,1177.798218 2354.512207,1161.918213 
	C2354.305908,1144.341064 2355.491943,1126.742676 2356.241943,1109.160889 
	C2356.779297,1096.562866 2358.229736,1083.973633 2358.164062,1071.386230 
	C2358.005615,1041.033081 2325.813232,1030.062988 2305.910156,1040.164307 
	C2294.500732,1045.954834 2285.740967,1054.648804 2280.056885,1065.701416 
	C2271.712646,1081.926636 2264.622314,1098.796509 2256.984863,1115.385864 
	C2255.706543,1118.162354 2255.482422,1121.620972 2250.794189,1124.482788 
	C2253.106689,1107.855713 2255.242188,1092.790649 2257.285645,1077.713135 
	C2258.813721,1066.440430 2259.603027,1055.187744 2254.646973,1042.821655 
M2826.796631,1195.795166 
	C2835.421875,1184.837646 2844.812500,1174.384888 2852.461670,1162.783813 
	C2860.491943,1150.605225 2867.463135,1137.616089 2873.730713,1124.426880 
	C2877.947021,1115.555054 2877.023438,1106.086792 2869.908936,1098.380005 
	C2862.574951,1090.434937 2853.412598,1089.138062 2843.458496,1092.277466 
	C2836.208252,1094.564331 2832.435791,1100.314697 2829.238525,1106.796021 
	C2819.644043,1126.244263 2808.667969,1144.848145 2793.990479,1160.978149 
	C2790.734863,1164.555664 2786.737061,1167.457642 2782.364990,1171.299805 
	C2781.268555,1168.614136 2780.468506,1167.208496 2780.113037,1165.698242 
	C2776.555420,1150.576416 2776.945312,1135.241821 2779.013184,1120.074951 
	C2781.072510,1104.974243 2784.378662,1090.041870 2787.202393,1075.047607 
	C2789.865967,1060.903687 2780.225830,1047.014160 2766.520264,1046.407349 
	C2748.551025,1045.611816 2730.673584,1046.552368 2714.266113,1055.172974 
	C2705.444824,1059.807617 2696.322998,1064.177002 2688.323730,1070.017578 
	C2654.137207,1094.978638 2636.270752,1128.098755 2640.382324,1171.219727 
	C2641.923584,1187.381592 2646.912598,1202.442261 2658.758057,1214.399292 
	C2667.951660,1223.679321 2679.385498,1228.371704 2692.101074,1227.241333 
	C2709.029541,1225.736450 2722.955322,1217.574707 2733.601807,1204.100220 
	C2735.572266,1201.606201 2737.900879,1199.395142 2740.110596,1197.003052 
	C2741.211426,1198.164673 2741.753906,1198.574341 2742.087891,1199.113403 
	C2757.452148,1223.907837 2786.840088,1226.023315 2806.516357,1212.458008 
	C2813.311523,1207.773438 2819.388916,1202.048096 2826.796631,1195.795166 
M2438.844971,1180.592285 
	C2433.122559,1178.886353 2428.694580,1176.020020 2428.148193,1168.954590 
	C2430.157959,1168.540649 2431.722168,1168.039551 2433.315674,1167.918091 
	C2447.529053,1166.833740 2460.753662,1162.416870 2472.675781,1154.850830 
	C2500.015625,1137.500244 2517.514893,1113.493286 2520.090576,1080.401367 
	C2521.888184,1057.302856 2509.948975,1038.930054 2488.666504,1029.904907 
	C2458.240967,1017.002319 2422.791504,1026.260498 2400.946777,1051.903320 
	C2382.746338,1073.268188 2372.897705,1098.586670 2370.356689,1126.412354 
	C2368.289551,1149.051636 2368.434326,1171.691895 2378.373779,1192.992065 
	C2387.796143,1213.182983 2402.207764,1227.141846 2425.160645,1230.654907 
	C2445.908203,1233.830566 2465.485352,1230.085327 2484.249268,1221.217896 
	C2499.683594,1213.923828 2512.120605,1203.158569 2520.922119,1188.458008 
	C2525.949463,1180.061157 2527.542969,1171.096313 2523.825684,1161.707153 
	C2518.549561,1148.379761 2504.335449,1144.174072 2492.803223,1152.557617 
	C2490.125977,1154.503906 2487.752197,1156.873901 2485.277588,1159.092041 
	C2481.563721,1162.421021 2478.145508,1166.146484 2474.138672,1169.068481 
	C2464.092529,1176.394531 2453.498779,1182.557129 2438.844971,1180.592285 
M2020.363159,1107.715942 
	C2020.049927,1111.030273 2019.861084,1114.361938 2019.403931,1117.656372 
	C2015.863770,1143.174194 2019.815063,1167.553345 2032.368286,1189.955933 
	C2044.392334,1211.414185 2063.502441,1223.903076 2088.009033,1225.475830 
	C2122.453613,1227.686157 2148.065918,1212.353638 2162.916260,1181.340942 
	C2180.154541,1145.341675 2184.952148,1107.718872 2172.761230,1068.939575 
	C2168.412109,1055.104126 2161.760254,1042.680420 2150.046143,1033.342285 
	C2139.660645,1025.063354 2127.343018,1022.357727 2114.839600,1020.647949 
	C2098.063232,1018.353882 2081.359863,1018.965820 2066.916016,1029.350952 
	C2053.258789,1039.170288 2041.919434,1051.186646 2034.305176,1066.512573 
	C2028.038330,1079.126465 2023.573853,1092.278687 2020.363159,1107.715942 
M1695.971069,1018.206055 
	C1675.819458,1016.587158 1665.127930,1024.573242 1661.376709,1044.051514 
	C1661.001343,1046.000732 1660.426392,1047.942749 1660.322021,1049.908325 
	C1658.737427,1079.764526 1657.141724,1109.620483 1655.714600,1139.484497 
	C1655.102051,1152.304932 1657.689453,1164.721069 1662.308472,1176.573486 
	C1670.801514,1198.366089 1685.480835,1213.824341 1709.112549,1218.721802 
	C1716.189697,1220.188599 1723.648804,1220.310791 1730.923828,1220.230713 
	C1751.755005,1220.001587 1768.943970,1211.750244 1782.232666,1195.636353 
	C1799.164795,1175.104492 1805.830322,1150.414673 1809.750366,1124.928589 
	C1812.520142,1106.920288 1814.313965,1088.711792 1815.461670,1070.524292 
	C1816.082642,1060.686157 1815.604370,1050.452515 1813.531494,1040.848389 
	C1810.580322,1027.174927 1801.463013,1021.426941 1787.062500,1021.684082 
	C1773.534546,1021.925598 1765.018433,1028.261719 1762.166870,1041.617920 
	C1760.166626,1050.986694 1759.614746,1060.659058 1758.276245,1070.176025 
	C1755.411499,1090.543945 1753.230225,1111.053223 1749.221558,1131.196533 
	C1747.119019,1141.761475 1742.059692,1151.811523 1737.707764,1161.821167 
	C1735.828003,1166.145020 1731.843140,1169.596924 1726.689819,1169.159790 
	C1720.885010,1168.667480 1716.905884,1164.709839 1715.175903,1159.344360 
	C1713.668945,1154.670410 1712.444092,1149.646851 1712.475342,1144.786499 
	C1712.554321,1132.507812 1713.209106,1120.220825 1714.001587,1107.961060 
	C1715.286255,1088.085815 1716.741333,1068.219482 1718.361206,1048.368652 
	C1719.561523,1033.656982 1711.466797,1021.643372 1695.971069,1018.206055 
M1370.497070,1058.201904 
	C1352.696289,1056.153076 1348.496094,1058.411255 1340.461426,1074.352661 
	C1339.712036,1075.839722 1339.004639,1077.349121 1338.214844,1078.814209 
	C1329.826294,1094.378052 1320.840454,1109.532471 1308.196533,1122.145508 
	C1305.724854,1124.611328 1303.439453,1127.491089 1298.049438,1127.711426 
	C1297.247803,1117.970337 1295.211426,1108.677368 1296.012085,1099.635620 
	C1297.531250,1082.477173 1300.714111,1065.468140 1303.117676,1048.384644 
	C1303.716309,1044.130493 1304.613159,1039.777344 1304.267700,1035.560181 
	C1303.502563,1026.221558 1296.599365,1018.168640 1288.183105,1017.752686 
	C1278.247437,1017.261597 1267.844849,1016.460938 1258.347412,1018.732727 
	C1232.111084,1025.008667 1209.587646,1038.397827 1192.796387,1059.862061 
	C1171.542603,1087.030762 1166.088745,1117.433594 1177.721558,1150.065674 
	C1183.151978,1165.298706 1193.777710,1176.167847 1210.495605,1179.090332 
	C1226.284668,1181.850586 1239.046753,1174.941284 1250.462402,1165.047607 
	C1254.625244,1161.439819 1258.113892,1157.054077 1262.261108,1152.650391 
	C1264.110229,1154.952393 1265.516724,1156.738770 1266.960327,1158.494751 
	C1278.880859,1172.995483 1294.778931,1177.505127 1312.536743,1170.979614 
	C1326.057129,1166.011475 1336.210938,1156.394775 1345.428955,1145.729736 
	C1359.453369,1129.503784 1370.018677,1111.030396 1380.084595,1092.220215 
	C1387.442627,1078.470581 1385.029175,1068.106445 1370.497070,1058.201904 
M2590.301758,1167.513550 
	C2591.675781,1157.324707 2592.248047,1146.935181 2594.728760,1137.023315 
	C2596.180908,1131.222900 2599.656250,1125.079346 2604.025146,1121.041138 
	C2612.273193,1113.417114 2621.783203,1107.146729 2630.849365,1100.423096 
	C2635.648193,1096.864258 2640.967773,1093.936401 2645.443359,1090.026978 
	C2658.524902,1078.600342 2660.739746,1065.328735 2652.674072,1049.795288 
	C2644.210449,1033.495850 2628.551270,1031.476074 2616.332520,1045.304199 
	C2611.717041,1050.527466 2607.717529,1056.290039 2603.256836,1061.656616 
	C2601.718018,1063.507935 2599.631592,1064.903931 2596.267334,1067.842529 
	C2596.554443,1062.818237 2596.746582,1059.933105 2596.878906,1057.045288 
	C2597.201904,1050.002441 2596.689209,1043.085449 2591.890869,1037.426514 
	C2583.624756,1027.678467 2572.432617,1026.099854 2560.904053,1028.161377 
	C2551.624268,1029.820801 2547.872314,1037.713013 2545.509277,1046.064087 
	C2544.788574,1048.611084 2543.911865,1051.202393 2543.767822,1053.809937 
	C2542.524658,1076.340088 2540.673096,1098.872437 2540.496338,1121.416016 
	C2540.295898,1146.994263 2541.413818,1172.593506 2542.450928,1198.163696 
	C2542.729980,1205.035522 2544.571045,1211.887207 2546.121338,1218.650146 
	C2547.312500,1223.845093 2550.830811,1227.304810 2555.897461,1229.143311 
	C2570.212646,1234.337891 2583.670654,1226.923950 2586.858643,1211.991089 
	C2587.339600,1209.736938 2587.529053,1207.407593 2587.695557,1205.101562 
	C2588.556152,1193.185303 2589.364990,1181.265381 2590.301758,1167.513550 
M2837.614990,899.524719 
	C2833.441895,897.445618 2829.325928,895.239929 2825.081543,893.317810 
	C2819.135742,890.625000 2812.987793,888.778320 2807.499268,894.090881 
	C2802.175781,899.243652 2803.306641,905.576172 2805.030518,911.852722 
	C2805.206055,912.492188 2805.523682,913.091187 2805.740479,913.721008 
	C2819.173584,952.720764 2832.577881,991.730530 2846.075195,1030.708008 
	C2847.265381,1034.145386 2848.698486,1037.606689 2850.650391,1040.652344 
	C2856.473877,1049.739746 2866.404541,1049.968750 2872.689941,1041.017700 
	C2875.530029,1036.972778 2877.508789,1032.296997 2879.670166,1027.807129 
	C2884.144287,1018.514160 2888.624512,1009.218567 2892.802246,999.791199 
	C2894.576904,995.786499 2897.270996,993.585266 2901.401367,992.333130 
	C2912.219727,989.053589 2922.957520,985.505249 2933.698975,981.977051 
	C2937.485840,980.733093 2941.434570,979.679138 2944.884521,977.770142 
	C2953.946777,972.755005 2954.645996,961.678223 2946.358398,955.482727 
	C2943.452881,953.310730 2940.076416,951.734619 2936.821289,950.070007 
	C2904.217041,933.397827 2871.593262,916.763855 2837.614990,899.524719 
M2012.024292,966.105774 
	C2003.419312,966.548767 1994.810547,966.928406 1986.210693,967.455139 
	C1979.555054,967.862793 1976.178345,970.510742 1976.329102,974.931763 
	C1976.495850,979.816650 1980.221558,982.182739 1987.531372,981.704773 
	C1994.796753,981.229675 2002.044800,980.493469 2009.302612,979.897156 
	C2014.581299,979.463501 2019.857300,978.876221 2025.145386,978.716370 
	C2030.154175,978.564880 2032.698975,976.122742 2032.348755,971.308228 
	C2031.971313,966.119385 2028.235840,965.085754 2023.745972,965.396484 
	C2020.434814,965.625610 2017.112183,965.687988 2012.024292,966.105774 
M1912.764404,972.248474 
	C1908.486450,972.639343 1904.199097,972.947510 1899.932983,973.441406 
	C1894.274658,974.096436 1891.089600,977.062195 1891.706543,981.173279 
	C1892.505737,986.497864 1896.483276,986.813904 1900.727295,986.589783 
	C1913.622192,985.908875 1926.520996,985.297913 1939.411987,984.551025 
	C1945.019165,984.226135 1947.983276,981.353699 1947.676392,976.921448 
	C1947.366211,972.442139 1943.902832,969.981140 1938.333496,970.392090 
	C1930.418823,970.976074 1922.508911,971.624878 1912.764404,972.248474 
M2256.368164,950.217468 
	C2250.418945,950.619202 2244.460205,950.915894 2238.523193,951.453186 
	C2233.030273,951.950439 2230.287109,954.344971 2230.377686,958.168701 
	C2230.469482,962.041809 2233.393311,964.682312 2238.739502,964.501160 
	C2252.332520,964.040222 2265.921875,963.316956 2279.492676,962.404236 
	C2284.770508,962.049255 2286.872559,959.313293 2286.470703,954.683655 
	C2286.099365,950.409302 2283.124512,948.019226 2278.006348,948.351196 
	C2271.395020,948.779907 2264.802734,949.494141 2256.368164,950.217468 
M1851.442505,990.484619 
	C1852.420288,990.319214 1853.400879,990.169250 1854.375244,989.985901 
	C1861.336914,988.675537 1862.747192,987.383484 1862.513672,982.546936 
	C1862.281006,977.727112 1860.444824,976.101562 1853.440552,976.328552 
	C1840.921997,976.734314 1828.406128,977.447266 1815.914795,978.377686 
	C1809.376709,978.864685 1806.875244,981.762146 1807.487305,986.859985 
	C1808.032227,991.399414 1810.169922,992.682434 1817.165649,992.563721 
	C1818.812378,992.535767 1820.454468,992.295166 1822.101318,992.196655 
	C1831.308472,991.645935 1840.516235,991.108826 1851.442505,990.484619 
M2707.642334,922.502869 
	C2691.805420,922.941833 2675.957764,923.164185 2660.139404,923.968994 
	C2656.086426,924.175293 2653.833740,927.530151 2654.367432,931.881836 
	C2654.859863,935.897827 2657.760010,937.626343 2661.349365,937.599670 
	C2666.630615,937.560608 2671.909424,936.975769 2677.186035,936.580017 
	C2685.776367,935.935608 2694.408936,935.600464 2702.938721,934.485107 
	C2710.044189,933.555969 2710.773926,931.626343 2707.642334,922.502869 
M2615.546875,940.580566 
	C2623.409424,939.172180 2626.389160,936.743286 2625.542725,932.432739 
	C2624.704102,928.162537 2620.082031,926.056091 2613.458496,926.790283 
	C2610.508789,927.117310 2607.532715,927.203857 2604.570068,927.418762 
	C2595.341309,928.088013 2586.091797,928.570984 2576.899902,929.577576 
	C2574.581299,929.831421 2571.596924,931.211670 2570.394043,933.043457 
	C2567.291016,937.769409 2570.616455,942.628540 2577.172119,942.473083 
	C2589.392090,942.183472 2601.596924,941.251099 2615.546875,940.580566 
M2345.833740,958.116577 
	C2352.088379,957.606384 2358.339355,957.044495 2364.598877,956.603699 
	C2368.943359,956.297729 2371.406006,954.012207 2371.562988,949.747864 
	C2371.704834,945.899231 2368.585938,943.384705 2363.216064,943.493347 
	C2354.287842,943.673889 2345.365479,944.262268 2336.448242,944.807373 
	C2331.181396,945.129333 2325.874512,945.376404 2320.689941,946.265625 
	C2317.010498,946.896729 2315.213135,949.684509 2315.541748,953.607544 
	C2315.841553,957.184692 2318.158936,958.933594 2321.279785,959.514160 
	C2323.524902,959.931763 2325.911865,959.767029 2328.220947,959.624512 
	C2333.492432,959.299072 2338.755127,958.827820 2345.833740,958.116577 
M2533.551025,932.255188 
	C2519.989990,932.948059 2506.422363,933.535645 2492.871826,934.395508 
	C2488.610840,934.665894 2485.060547,936.692627 2484.515381,941.431702 
	C2484.074463,945.268005 2488.263672,948.788269 2493.448975,948.513855 
	C2506.668457,947.814087 2519.863770,946.672913 2533.077148,945.842651 
	C2536.771729,945.610535 2539.702637,944.517761 2540.376221,940.554993 
	C2541.075439,936.442444 2539.624756,933.382812 2533.551025,932.255188 
M1756.510742,982.237610 
	C1747.953247,982.904968 1739.390381,983.510010 1730.840210,984.261047 
	C1724.918091,984.781311 1721.861572,987.405579 1722.383911,991.687988 
	C1722.983398,996.605103 1726.353516,998.105774 1730.914429,997.851196 
	C1744.108398,997.114502 1757.312622,996.536316 1770.497192,995.661316 
	C1775.328125,995.340698 1778.430908,992.124634 1778.386353,988.356445 
	C1778.337524,984.244080 1774.602051,981.353027 1769.207397,981.494568 
	C1765.576294,981.589844 1761.952759,981.977234 1756.510742,982.237610 
M1351.136230,1360.708374 
	C1362.342896,1359.980469 1373.558350,1359.364990 1384.751831,1358.472046 
	C1389.540527,1358.090088 1392.209839,1354.825928 1391.602905,1350.607666 
	C1390.986450,1346.324219 1388.201782,1344.059448 1384.030762,1344.353516 
	C1370.539917,1345.304810 1357.061646,1346.453979 1343.592651,1347.682739 
	C1339.968994,1348.013428 1337.493774,1349.744995 1337.391968,1354.007812 
	C1337.285278,1358.477539 1339.408691,1360.894043 1343.549805,1361.538574 
	C1345.461548,1361.835938 1347.488403,1361.392212 1351.136230,1360.708374 
M2768.381592,930.597168 
	C2774.681152,930.307373 2780.997314,930.208496 2787.275635,929.669861 
	C2792.731689,929.201843 2794.663330,926.959045 2794.559570,922.178040 
	C2794.457275,917.484802 2792.223877,915.465027 2786.656494,915.516296 
	C2782.683350,915.552856 2778.712646,915.969604 2774.743164,916.245178 
	C2765.160889,916.910400 2755.567383,917.458557 2746.003174,918.324890 
	C2741.364014,918.745117 2738.172363,922.356262 2738.806641,926.043579 
	C2739.551270,930.374451 2742.340332,932.093201 2746.677002,931.779358 
	C2753.276611,931.301819 2759.887695,930.986389 2768.381592,930.597168 
M2090.906006,960.592468 
	C2083.336426,961.156067 2075.739258,961.482544 2068.206299,962.361694 
	C2062.632812,963.012146 2060.456055,966.447632 2061.682617,971.282532 
	C2062.750977,975.494324 2065.979736,975.901428 2069.443604,975.734436 
	C2082.315918,975.114014 2095.187744,974.480591 2108.052246,973.725342 
	C2114.072754,973.371826 2117.998047,969.926025 2117.500244,965.791199 
	C2116.994873,961.591675 2112.869629,959.268433 2106.635498,959.620056 
	C2102.011475,959.880859 2097.384277,960.086609 2090.906006,960.592468 
M2182.978271,954.570618 
	C2173.111328,955.177002 2163.225830,955.576965 2153.385254,956.473511 
	C2148.156006,956.949951 2145.697266,959.927734 2146.022461,964.026123 
	C2146.354980,968.217590 2149.009277,970.532837 2154.285156,970.524963 
	C2159.560303,970.517029 2164.841064,970.115601 2170.108643,969.737793 
	C2178.323486,969.148621 2186.526611,968.399170 2194.739746,967.786316 
	C2199.008545,967.467773 2201.552246,965.414978 2201.683350,961.017395 
	C2201.808838,956.805725 2199.221924,954.589600 2193.766357,954.280884 
	C2190.799805,954.113098 2187.813721,954.288025 2182.978271,954.570618 
M1419.446045,1348.856201 
	C1419.542969,1354.233765 1423.103149,1355.434692 1427.469727,1355.159180 
	C1439.960815,1354.370850 1452.448120,1353.499023 1464.922241,1352.480469 
	C1470.759155,1352.004028 1473.855957,1349.143188 1473.672607,1345.005249 
	C1473.478027,1340.614746 1470.325195,1337.952271 1464.479614,1338.333984 
	C1451.668091,1339.170166 1438.881348,1340.391968 1426.089355,1341.512451 
	C1422.488037,1341.828003 1419.663696,1343.190674 1419.446045,1348.856201 
M1520.122437,1348.061768 
	C1529.018433,1347.343628 1537.929688,1346.773560 1546.805420,1345.858887 
	C1553.472046,1345.171997 1555.762451,1343.158691 1555.707153,1338.914917 
	C1555.646484,1334.267456 1552.768677,1332.126343 1545.625732,1332.318604 
	C1538.696045,1332.505127 1531.777710,1333.213989 1524.861816,1333.784180 
	C1519.594604,1334.218384 1514.304321,1334.567017 1509.087280,1335.364990 
	C1502.588501,1336.359131 1500.987061,1338.317017 1501.503418,1343.273438 
	C1502.111572,1349.111450 1506.458618,1348.538818 1510.428345,1348.568115 
	C1513.080444,1348.587769 1515.733521,1348.445068 1520.122437,1348.061768 
M1630.292358,1339.727905 
	C1635.558228,1339.252075 1638.487183,1336.362183 1637.412964,1331.136108 
	C1636.445068,1326.427002 1632.625488,1325.401978 1628.101196,1325.846680 
	C1618.861328,1326.754639 1609.595459,1327.397949 1600.341309,1328.161743 
	C1596.386597,1328.488037 1592.418213,1328.715942 1588.485474,1329.218994 
	C1584.242554,1329.761597 1583.278076,1332.831665 1583.471191,1336.510254 
	C1583.682495,1340.534790 1585.946167,1342.497681 1589.904663,1342.544067 
	C1591.899658,1342.567505 1593.903687,1342.567627 1595.890503,1342.411377 
	C1606.804565,1341.554077 1617.714600,1340.644775 1630.292358,1339.727905 
M2413.447754,953.766541 
	C2424.661133,953.096436 2435.877197,952.472412 2447.086426,951.738647 
	C2453.646484,951.309143 2456.312012,948.685181 2455.716553,943.532837 
	C2455.185303,938.935486 2452.468750,937.139221 2446.110352,937.568604 
	C2434.580078,938.347290 2423.055176,939.220581 2411.535645,940.145386 
	C2402.386719,940.879822 2399.959229,942.579834 2400.307373,947.697876 
	C2400.635742,952.523804 2402.516357,953.534668 2413.447754,953.766541 
M1179.826172,1340.893555 
	C1177.074463,1344.896729 1178.188599,1348.532104 1181.142822,1351.745728 
	C1191.514648,1363.028564 1204.553833,1368.927734 1219.674805,1370.468018 
	C1224.012695,1370.909912 1226.720093,1368.858643 1227.579346,1364.653198 
	C1228.415771,1360.559814 1225.916138,1356.941040 1221.072144,1356.412964 
	C1209.323120,1355.132446 1199.402588,1350.584106 1191.415771,1341.778076 
	C1188.507935,1338.571899 1185.027954,1336.897827 1179.826172,1340.893555 
M1665.883423,1326.223022 
	C1665.716064,1335.559937 1666.910400,1336.794189 1675.585327,1336.181641 
	C1683.470947,1335.625000 1691.354126,1335.033325 1699.240234,1334.483276 
	C1703.520386,1334.184692 1707.835571,1334.174316 1712.078369,1333.609131 
	C1716.788696,1332.981445 1719.885010,1329.567505 1719.653076,1325.913940 
	C1719.394165,1321.834106 1716.534180,1319.603027 1711.305054,1319.443115 
	C1710.315918,1319.412720 1709.320435,1319.469727 1708.332520,1319.546631 
	C1696.831909,1320.442017 1685.320557,1321.230469 1673.841187,1322.346802 
	C1671.363647,1322.587646 1669.002075,1324.019897 1665.883423,1326.223022 
M1309.449951,1355.709839 
	C1307.901489,1352.071655 1304.896606,1351.171265 1301.310547,1351.412231 
	C1288.441284,1352.276978 1275.574829,1353.182129 1262.703369,1354.012329 
	C1258.005371,1354.315552 1255.125488,1356.272583 1255.495239,1361.406372 
	C1255.867798,1366.578735 1259.226685,1368.079590 1263.752075,1367.730591 
	C1276.931763,1366.714111 1290.108154,1365.647095 1303.275024,1364.478027 
	C1307.516724,1364.101318 1309.920410,1361.754395 1309.449951,1355.709839 
M2160.708252,1298.694580 
	C2166.000977,1298.378174 2171.311035,1298.232910 2176.581787,1297.699219 
	C2182.304443,1297.119751 2184.618408,1294.902588 2184.472656,1290.773804 
	C2184.315918,1286.330688 2181.375488,1283.906372 2175.389404,1284.162842 
	C2166.801758,1284.530518 2158.232910,1285.347412 2149.655518,1285.963867 
	C2145.699463,1286.248169 2141.679443,1286.169678 2137.802490,1286.880127 
	C2133.933594,1287.589111 2131.042725,1289.795288 2131.537598,1294.414307 
	C2132.022705,1298.943481 2134.968994,1300.723999 2139.122803,1300.509766 
	C2145.722656,1300.169312 2152.307617,1299.539429 2160.708252,1298.694580 
M2053.805908,1303.168091 
	C2055.383301,1304.273926 2056.903809,1306.206543 2058.549805,1306.320557 
	C2062.491699,1306.593384 2066.495361,1306.046875 2070.469727,1305.766113 
	C2079.733643,1305.111572 2089.014893,1304.618774 2098.249023,1303.668823 
	C2104.108643,1303.066040 2106.748047,1299.759766 2105.603516,1295.293945 
	C2104.627197,1291.484131 2101.836426,1289.927612 2098.101074,1290.134644 
	C2085.502686,1290.832397 2072.881836,1291.330933 2060.327637,1292.518433 
	C2055.434082,1292.981323 2051.335938,1295.560791 2053.805908,1303.168091 
M2004.548218,1310.651611 
	C2009.509766,1310.352417 2014.486938,1310.207275 2019.428467,1309.709351 
	C2024.129028,1309.235718 2027.491943,1306.012573 2027.415894,1302.522705 
	C2027.331787,1298.659424 2024.432739,1296.158325 2018.959961,1296.317383 
	C2010.372681,1296.566895 2001.800049,1297.337646 1993.222778,1297.910156 
	C1988.932861,1298.196533 1984.587280,1298.198853 1980.375488,1298.943604 
	C1976.432007,1299.640747 1973.769043,1302.070801 1974.306763,1306.612183 
	C1974.843628,1311.145386 1977.817871,1312.828979 1981.972900,1312.558716 
	C1988.895386,1312.108154 1995.802612,1311.425659 2004.548218,1310.651611 
M2243.671143,1282.645020 
	C2241.393799,1281.574097 2239.133057,1279.639893 2236.835938,1279.595703 
	C2230.243652,1279.468384 2223.602051,1279.800903 2217.045898,1280.540161 
	C2211.717041,1281.140991 2209.765625,1283.914185 2210.286377,1288.473511 
	C2210.810303,1293.061401 2213.902100,1294.699097 2217.916504,1294.504272 
	C2224.497803,1294.184448 2231.062256,1293.477783 2237.626221,1292.852539 
	C2243.067139,1292.334351 2245.047852,1289.171997 2243.671143,1282.645020 
M1449.536621,1016.542114 
	C1450.844971,1016.344910 1452.147339,1016.041748 1453.462646,1015.969604 
	C1458.241333,1015.707458 1460.917236,1013.507385 1460.494751,1008.452454 
	C1460.060547,1003.259644 1456.599976,1001.992615 1452.131104,1002.258423 
	C1446.538574,1002.591064 1440.953003,1003.035645 1435.362549,1003.405579 
	C1429.001831,1003.826538 1425.863647,1006.539490 1426.345337,1011.243347 
	C1426.788086,1015.569824 1430.937256,1017.924866 1437.029541,1017.384277 
	C1440.633423,1017.064575 1444.246582,1016.847778 1449.536621,1016.542114 
M1921.957886,1317.561157 
	C1928.195557,1316.961914 1934.427124,1316.286255 1940.672974,1315.789185 
	C1945.169678,1315.431274 1948.415161,1313.803711 1948.500854,1308.743286 
	C1948.571899,1304.544434 1946.057861,1302.299683 1940.437744,1302.320923 
	C1934.513794,1302.343262 1928.595825,1303.085693 1922.668579,1303.373291 
	C1918.779541,1303.562012 1915.305054,1304.253052 1914.403320,1308.788940 
	C1913.447632,1313.595703 1915.662720,1316.362915 1921.957886,1317.561157 
M1666.107666,988.278076 
	C1660.906860,989.127747 1658.488770,992.061829 1659.705933,997.330627 
	C1660.899536,1002.496704 1664.754395,1002.541809 1669.054688,1002.064331 
	C1675.278320,1001.373230 1681.548340,1001.109680 1687.782471,1000.498474 
	C1691.655884,1000.118713 1693.770996,997.774963 1693.660034,993.866577 
	C1693.532471,989.369751 1690.793823,987.345703 1686.526733,987.450317 
	C1680.251465,987.604065 1673.981201,987.965698 1666.107666,988.278076 
M1365.043091,1008.114441 
	C1364.048218,1008.161255 1363.052368,1008.193176 1362.058594,1008.257446 
	C1356.997681,1008.585022 1355.100952,1011.568604 1355.544434,1016.286194 
	C1356.000488,1021.137573 1359.460938,1021.952148 1363.442993,1021.737061 
	C1370.045044,1021.380676 1376.644165,1020.955811 1383.240112,1020.498962 
	C1387.180542,1020.226135 1389.528320,1017.793823 1389.505615,1014.101135 
	C1389.480347,1009.977112 1387.130981,1007.319580 1382.563599,1007.428589 
	C1377.258667,1007.555115 1371.953369,1007.664124 1365.043091,1008.114441 
M1781.684204,1321.127441 
	C1780.890869,1316.938354 1778.002197,1314.531250 1774.111816,1314.611694 
	C1767.207642,1314.754517 1760.314575,1315.639160 1753.427490,1316.321533 
	C1748.918701,1316.768433 1747.260498,1319.649902 1747.498657,1323.879028 
	C1747.727295,1327.941284 1750.083740,1329.877441 1753.991699,1329.707886 
	C1761.235229,1329.393433 1768.534424,1329.301880 1775.670898,1328.208374 
	C1777.895020,1327.867554 1779.670410,1324.598145 1781.684204,1321.127441 
z"/>
<path fill="#F9EC02" opacity="1.000000" stroke="none" 
	d="
M1609.135254,1141.978271 
	C1626.026001,1141.717041 1637.008423,1152.221558 1637.534668,1169.238403 
	C1637.758057,1176.463501 1637.272949,1184.023682 1635.364380,1190.950806 
	C1622.768066,1236.668457 1594.153687,1266.959473 1547.733032,1278.885254 
	C1503.835327,1290.162964 1465.366211,1262.691406 1452.432983,1226.163452 
	C1444.295532,1203.180786 1443.356812,1179.232666 1443.784912,1155.262695 
	C1444.490967,1115.722656 1451.562378,1077.280518 1466.009766,1040.372192 
	C1475.314331,1016.602112 1487.793701,994.821045 1506.435669,976.874817 
	C1521.700806,962.179443 1539.770874,952.985474 1560.734131,952.610107 
	C1595.723022,951.983582 1628.278320,974.778320 1632.538696,1011.247314 
	C1634.400635,1027.184326 1632.564453,1042.406860 1627.649658,1057.298706 
	C1623.400391,1070.174438 1615.291382,1079.977539 1601.697388,1084.246338 
	C1582.170654,1090.378174 1566.634521,1079.790039 1565.791382,1059.303223 
	C1565.449951,1051.004883 1566.204102,1042.666382 1566.259644,1034.344849 
	C1566.297852,1028.617310 1566.205811,1022.181702 1559.620728,1020.196899 
	C1552.972290,1018.192993 1547.640869,1022.212219 1544.869263,1027.868896 
	C1538.299561,1041.276978 1531.492065,1054.696899 1526.499878,1068.723999 
	C1514.353027,1102.854980 1508.609619,1138.188843 1509.719971,1174.508789 
	C1509.986938,1183.243408 1510.943970,1191.810425 1517.270630,1198.681763 
	C1524.414673,1206.440918 1531.576538,1208.189331 1541.579712,1204.469727 
	C1554.395508,1199.704224 1564.665771,1191.180542 1573.487183,1181.160278 
	C1581.382812,1172.191528 1587.911377,1162.030518 1595.620728,1152.882202 
	C1599.146240,1148.698608 1604.059204,1145.684204 1609.135254,1141.978271 
z"/>
<path fill="#F9EC02" opacity="1.000000" stroke="none" 
	d="
M1922.840698,1255.619385 
	C1911.109375,1255.314331 1900.256104,1254.931274 1888.609619,1254.520142 
	C1888.305420,1259.468384 1887.890381,1264.383667 1887.721191,1269.307495 
	C1887.193359,1284.661865 1885.255005,1299.815430 1879.922485,1314.268433 
	C1877.761597,1320.125366 1874.783447,1325.890625 1871.131592,1330.941528 
	C1864.722900,1339.805298 1855.299072,1342.944580 1844.687134,1341.466797 
	C1836.684082,1340.352295 1829.979126,1336.422729 1827.468628,1328.199707 
	C1825.649902,1322.242676 1823.892334,1315.963989 1823.854004,1309.817871 
	C1823.673584,1280.838257 1823.481323,1251.833740 1824.485474,1222.879272 
	C1825.381958,1197.032227 1827.755981,1171.233398 1829.630615,1145.424316 
	C1831.049194,1125.893311 1832.480347,1106.357666 1834.371582,1086.869263 
	C1835.136108,1078.990601 1836.354492,1070.984863 1838.724365,1063.464844 
	C1846.142334,1039.927490 1862.766357,1025.896362 1886.884033,1022.650391 
	C1915.041748,1018.860535 1941.888550,1024.205933 1966.351196,1039.372559 
	C1985.955444,1051.526855 1997.569946,1069.657471 2001.408203,1091.770508 
	C2008.556763,1132.956543 2002.922607,1172.627686 1982.434448,1209.504150 
	C1969.403442,1232.958374 1950.136475,1248.927612 1922.840698,1255.619385 
M1941.698853,1121.215210 
	C1940.369995,1113.423340 1939.603271,1105.479736 1937.553101,1097.882568 
	C1935.532959,1090.396118 1930.440186,1084.851196 1922.298340,1083.952759 
	C1914.056885,1083.043579 1906.887451,1086.513794 1902.721802,1093.442383 
	C1898.862915,1099.860840 1895.692017,1107.048828 1893.970703,1114.313110 
	C1891.388550,1125.210815 1889.925415,1136.427490 1888.741821,1147.588623 
	C1887.311035,1161.078613 1886.377686,1174.639526 1885.793823,1188.194092 
	C1885.441528,1196.370483 1887.388794,1197.590454 1895.678589,1198.357422 
	C1911.638428,1199.833740 1922.315552,1192.558960 1929.402954,1178.848145 
	C1938.458130,1161.330078 1940.561157,1142.291626 1941.698853,1121.215210 
z"/>
<path fill="#F9EC02" opacity="1.000000" stroke="none" 
	d="
M1165.680298,1284.102783 
	C1165.680176,1277.150269 1165.680176,1271.168335 1165.680176,1264.347534 
	C1163.007935,1265.125854 1160.857544,1265.570923 1158.846558,1266.367676 
	C1146.386841,1271.304077 1133.648804,1274.499023 1120.080078,1274.382568 
	C1091.008301,1274.133057 1069.003052,1258.471069 1059.925903,1230.919067 
	C1053.622925,1211.787354 1054.793213,1192.150269 1057.023804,1172.638062 
	C1060.449829,1142.668945 1064.408081,1112.758667 1068.358521,1082.852173 
	C1070.788086,1064.459106 1072.994385,1045.998901 1076.486572,1027.796265 
	C1079.055420,1014.406982 1084.233887,1001.679016 1092.262329,990.374817 
	C1104.393799,973.293396 1122.440430,972.047241 1136.935181,987.317322 
	C1142.781372,993.476196 1146.478027,1000.644531 1148.383423,1009.046936 
	C1153.092407,1029.810913 1151.108276,1050.638184 1149.223145,1071.388550 
	C1147.394653,1091.516602 1144.466187,1111.545044 1142.010254,1131.615845 
	C1139.514648,1152.009644 1136.930908,1172.392944 1134.568604,1192.802002 
	C1134.113281,1196.736450 1134.503296,1200.768799 1134.503296,1205.417603 
	C1137.179321,1204.264404 1139.820557,1203.241577 1142.361938,1202.012451 
	C1158.515991,1194.199585 1175.911987,1191.416504 1193.508179,1190.586182 
	C1200.196655,1190.270630 1207.270386,1192.457031 1213.740723,1194.724243 
	C1220.617310,1197.133789 1223.783813,1202.824707 1223.759033,1210.385498 
	C1223.719482,1222.501099 1219.232178,1232.794067 1209.772461,1239.886353 
	C1200.015381,1247.201538 1189.176025,1253.073242 1178.382690,1259.844727 
	C1181.093262,1274.454712 1179.280884,1290.310669 1179.601929,1306.099487 
	C1179.701782,1311.012695 1176.548340,1314.088135 1172.647095,1314.180054 
	C1168.732666,1314.272217 1166.038940,1311.468872 1165.794312,1306.047729 
	C1165.479248,1299.068726 1165.693970,1292.066040 1165.680298,1284.102783 
z"/>
<path fill="#F9EC02" opacity="1.000000" stroke="none" 
	d="
M2255.000000,1043.529785 
	C2259.603027,1055.187744 2258.813721,1066.440430 2257.285645,1077.713135 
	C2255.242188,1092.790649 2253.106689,1107.855713 2250.794189,1124.482788 
	C2255.482422,1121.620972 2255.706543,1118.162354 2256.984863,1115.385864 
	C2264.622314,1098.796509 2271.712646,1081.926636 2280.056885,1065.701416 
	C2285.740967,1054.648804 2294.500732,1045.954834 2305.910156,1040.164307 
	C2325.813232,1030.062988 2358.005615,1041.033081 2358.164062,1071.386230 
	C2358.229736,1083.973633 2356.779297,1096.562866 2356.241943,1109.160889 
	C2355.491943,1126.742676 2354.305908,1144.341064 2354.512207,1161.918213 
	C2354.698486,1177.798218 2356.531494,1193.657349 2357.572998,1209.530029 
	C2357.768799,1212.515381 2357.871582,1215.537598 2357.643799,1218.514282 
	C2357.055664,1226.199585 2353.683105,1229.481934 2345.792725,1230.409790 
	C2322.309570,1233.170898 2305.533203,1221.655396 2300.318115,1198.594360 
	C2298.718994,1191.523926 2298.006836,1184.152344 2297.791016,1176.891846 
	C2297.397949,1163.667969 2297.679443,1150.423950 2297.679443,1134.701904 
	C2295.215820,1139.655396 2293.518311,1142.622437 2292.219482,1145.754883 
	C2285.346924,1162.332275 2278.578613,1178.952637 2271.765625,1195.554810 
	C2268.965820,1202.377930 2265.480957,1208.667358 2259.661865,1213.543335 
	C2240.229248,1229.826538 2203.598877,1222.842285 2198.397705,1189.891113 
	C2197.830078,1186.293945 2197.694092,1182.594238 2197.713867,1178.944092 
	C2197.858643,1152.314453 2197.480225,1125.661499 2198.518066,1099.064575 
	C2199.201660,1081.555176 2201.579346,1064.074585 2203.927979,1046.679565 
	C2205.688232,1033.641968 2212.940674,1025.610352 2223.151855,1023.957825 
	C2235.256592,1021.998840 2244.668213,1026.432007 2251.308838,1036.695801 
	C2252.568604,1038.642578 2253.541504,1040.774902 2255.000000,1043.529785 
z"/>
<path fill="#F9EC03" opacity="1.000000" stroke="none" 
	d="
M2826.295410,1196.296631 
	C2819.388916,1202.048096 2813.311523,1207.773438 2806.516357,1212.458008 
	C2786.840088,1226.023315 2757.452148,1223.907837 2742.087891,1199.113403 
	C2741.753906,1198.574341 2741.211426,1198.164673 2740.110596,1197.003052 
	C2737.900879,1199.395142 2735.572266,1201.606201 2733.601807,1204.100220 
	C2722.955322,1217.574707 2709.029541,1225.736450 2692.101074,1227.241333 
	C2679.385498,1228.371704 2667.951660,1223.679321 2658.758057,1214.399292 
	C2646.912598,1202.442261 2641.923584,1187.381592 2640.382324,1171.219727 
	C2636.270752,1128.098755 2654.137207,1094.978638 2688.323730,1070.017578 
	C2696.322998,1064.177002 2705.444824,1059.807617 2714.266113,1055.172974 
	C2730.673584,1046.552368 2748.551025,1045.611816 2766.520264,1046.407349 
	C2780.225830,1047.014160 2789.865967,1060.903687 2787.202393,1075.047607 
	C2784.378662,1090.041870 2781.072510,1104.974243 2779.013184,1120.074951 
	C2776.945312,1135.241821 2776.555420,1150.576416 2780.113037,1165.698242 
	C2780.468506,1167.208496 2781.268555,1168.614136 2782.364990,1171.299805 
	C2786.737061,1167.457642 2790.734863,1164.555664 2793.990479,1160.978149 
	C2808.667969,1144.848145 2819.644043,1126.244263 2829.238525,1106.796021 
	C2832.435791,1100.314697 2836.208252,1094.564331 2843.458496,1092.277466 
	C2853.412598,1089.138062 2862.574951,1090.434937 2869.908936,1098.380005 
	C2877.023438,1106.086792 2877.947021,1115.555054 2873.730713,1124.426880 
	C2867.463135,1137.616089 2860.491943,1150.605225 2852.461670,1162.783813 
	C2844.812500,1174.384888 2835.421875,1184.837646 2826.295410,1196.296631 
M2730.903076,1117.709351 
	C2731.758301,1115.548218 2732.918457,1113.453247 2733.405029,1111.212158 
	C2734.408936,1106.586670 2738.421631,1101.063477 2733.065918,1097.489014 
	C2728.325928,1094.325317 2723.624756,1098.287354 2719.624756,1101.106934 
	C2702.591797,1113.113892 2690.153564,1128.930908 2682.924316,1148.385620 
	C2680.574219,1154.710327 2680.229004,1161.991089 2680.088867,1168.857666 
	C2679.981689,1174.109009 2681.523682,1180.269043 2687.201904,1181.889160 
	C2692.589600,1183.426636 2695.955566,1178.644531 2699.141846,1174.612061 
	C2712.469971,1157.746216 2721.254395,1138.370728 2730.903076,1117.709351 
z"/>
<path fill="#F9EC03" opacity="1.000000" stroke="none" 
	d="
M2439.566162,1180.912109 
	C2453.498779,1182.557129 2464.092529,1176.394531 2474.138672,1169.068481 
	C2478.145508,1166.146484 2481.563721,1162.421021 2485.277588,1159.092041 
	C2487.752197,1156.873901 2490.125977,1154.503906 2492.803223,1152.557617 
	C2504.335449,1144.174072 2518.549561,1148.379761 2523.825684,1161.707153 
	C2527.542969,1171.096313 2525.949463,1180.061157 2520.922119,1188.458008 
	C2512.120605,1203.158569 2499.683594,1213.923828 2484.249268,1221.217896 
	C2465.485352,1230.085327 2445.908203,1233.830566 2425.160645,1230.654907 
	C2402.207764,1227.141846 2387.796143,1213.182983 2378.373779,1192.992065 
	C2368.434326,1171.691895 2368.289551,1149.051636 2370.356689,1126.412354 
	C2372.897705,1098.586670 2382.746338,1073.268188 2400.946777,1051.903320 
	C2422.791504,1026.260498 2458.240967,1017.002319 2488.666504,1029.904907 
	C2509.948975,1038.930054 2521.888184,1057.302856 2520.090576,1080.401367 
	C2517.514893,1113.493286 2500.015625,1137.500244 2472.675781,1154.850830 
	C2460.753662,1162.416870 2447.529053,1166.833740 2433.315674,1167.918091 
	C2431.722168,1168.039551 2430.157959,1168.540649 2428.148193,1168.954590 
	C2428.694580,1176.020020 2433.122559,1178.886353 2439.566162,1180.912109 
M2433.054688,1098.118774 
	C2431.805176,1101.889038 2430.496338,1105.640991 2429.321777,1109.434448 
	C2427.905273,1114.008423 2426.782471,1118.926514 2431.405518,1122.145630 
	C2436.160156,1125.456421 2440.332031,1121.901733 2443.965820,1119.312866 
	C2453.667969,1112.400391 2460.440674,1103.027588 2464.656494,1091.968140 
	C2465.915771,1088.664917 2466.091553,1084.853760 2466.259766,1081.251953 
	C2466.510742,1075.873657 2464.571045,1071.248901 2459.355957,1069.080444 
	C2453.607910,1066.690430 2449.465576,1070.419678 2446.710205,1074.468262 
	C2441.886475,1081.556152 2437.956787,1089.252441 2433.054688,1098.118774 
z"/>
<path fill="#F9EC03" opacity="1.000000" stroke="none" 
	d="
M2020.555908,1106.874512 
	C2023.573853,1092.278687 2028.038330,1079.126465 2034.305176,1066.512573 
	C2041.919434,1051.186646 2053.258789,1039.170288 2066.916016,1029.350952 
	C2081.359863,1018.965820 2098.063232,1018.353882 2114.839600,1020.647949 
	C2127.343018,1022.357727 2139.660645,1025.063354 2150.046143,1033.342285 
	C2161.760254,1042.680420 2168.412109,1055.104126 2172.761230,1068.939575 
	C2184.952148,1107.718872 2180.154541,1145.341675 2162.916260,1181.340942 
	C2148.065918,1212.353638 2122.453613,1227.686157 2088.009033,1225.475830 
	C2063.502441,1223.903076 2044.392334,1211.414185 2032.368286,1189.955933 
	C2019.815063,1167.553345 2015.863770,1143.174194 2019.403931,1117.656372 
	C2019.861084,1114.361938 2020.049927,1111.030273 2020.555908,1106.874512 
M2096.254395,1181.920898 
	C2100.289307,1177.159546 2105.078125,1172.844238 2108.210693,1167.548950 
	C2116.103516,1154.206787 2119.645020,1139.290649 2121.902588,1124.081421 
	C2123.860596,1110.888672 2124.905029,1097.669434 2121.703125,1084.500122 
	C2120.355713,1078.957886 2119.136475,1072.616943 2112.864258,1071.050781 
	C2106.683838,1069.507446 2100.983887,1072.546021 2097.177246,1077.552734 
	C2092.990967,1083.058350 2088.873779,1088.799316 2085.886230,1094.996948 
	C2078.891846,1109.506348 2075.192871,1125.099731 2074.421387,1141.119507 
	C2073.929932,1151.314819 2074.224121,1161.760498 2075.934570,1171.792480 
	C2077.814209,1182.817627 2083.547607,1185.392334 2096.254395,1181.920898 
z"/>
<path fill="#F9EC02" opacity="1.000000" stroke="none" 
	d="
M1696.798828,1018.315369 
	C1711.466797,1021.643372 1719.561523,1033.656982 1718.361206,1048.368652 
	C1716.741333,1068.219482 1715.286255,1088.085815 1714.001587,1107.961060 
	C1713.209106,1120.220825 1712.554321,1132.507812 1712.475342,1144.786499 
	C1712.444092,1149.646851 1713.668945,1154.670410 1715.175903,1159.344360 
	C1716.905884,1164.709839 1720.885010,1168.667480 1726.689819,1169.159790 
	C1731.843140,1169.596924 1735.828003,1166.145020 1737.707764,1161.821167 
	C1742.059692,1151.811523 1747.119019,1141.761475 1749.221558,1131.196533 
	C1753.230225,1111.053223 1755.411499,1090.543945 1758.276245,1070.176025 
	C1759.614746,1060.659058 1760.166626,1050.986694 1762.166870,1041.617920 
	C1765.018433,1028.261719 1773.534546,1021.925598 1787.062500,1021.684082 
	C1801.463013,1021.426941 1810.580322,1027.174927 1813.531494,1040.848389 
	C1815.604370,1050.452515 1816.082642,1060.686157 1815.461670,1070.524292 
	C1814.313965,1088.711792 1812.520142,1106.920288 1809.750366,1124.928589 
	C1805.830322,1150.414673 1799.164795,1175.104492 1782.232666,1195.636353 
	C1768.943970,1211.750244 1751.755005,1220.001587 1730.923828,1220.230713 
	C1723.648804,1220.310791 1716.189697,1220.188599 1709.112549,1218.721802 
	C1685.480835,1213.824341 1670.801514,1198.366089 1662.308472,1176.573486 
	C1657.689453,1164.721069 1655.102051,1152.304932 1655.714600,1139.484497 
	C1657.141724,1109.620483 1658.737427,1079.764526 1660.322021,1049.908325 
	C1660.426392,1047.942749 1661.001343,1046.000732 1661.376709,1044.051514 
	C1665.127930,1024.573242 1675.819458,1016.587158 1696.798828,1018.315369 
z"/>
<path fill="#F9EC03" opacity="1.000000" stroke="none" 
	d="
M1371.207397,1058.457153 
	C1385.029175,1068.106445 1387.442627,1078.470581 1380.084595,1092.220215 
	C1370.018677,1111.030396 1359.453369,1129.503784 1345.428955,1145.729736 
	C1336.210938,1156.394775 1326.057129,1166.011475 1312.536743,1170.979614 
	C1294.778931,1177.505127 1278.880859,1172.995483 1266.960327,1158.494751 
	C1265.516724,1156.738770 1264.110229,1154.952393 1262.261108,1152.650391 
	C1258.113892,1157.054077 1254.625244,1161.439819 1250.462402,1165.047607 
	C1239.046753,1174.941284 1226.284668,1181.850586 1210.495605,1179.090332 
	C1193.777710,1176.167847 1183.151978,1165.298706 1177.721558,1150.065674 
	C1166.088745,1117.433594 1171.542603,1087.030762 1192.796387,1059.862061 
	C1209.587646,1038.397827 1232.111084,1025.008667 1258.347412,1018.732727 
	C1267.844849,1016.460938 1278.247437,1017.261597 1288.183105,1017.752686 
	C1296.599365,1018.168640 1303.502563,1026.221558 1304.267700,1035.560181 
	C1304.613159,1039.777344 1303.716309,1044.130493 1303.117676,1048.384644 
	C1300.714111,1065.468140 1297.531250,1082.477173 1296.012085,1099.635620 
	C1295.211426,1108.677368 1297.247803,1117.970337 1298.049438,1127.711426 
	C1303.439453,1127.491089 1305.724854,1124.611328 1308.196533,1122.145508 
	C1320.840454,1109.532471 1329.826294,1094.378052 1338.214844,1078.814209 
	C1339.004639,1077.349121 1339.712036,1075.839722 1340.461426,1074.352661 
	C1348.496094,1058.411255 1352.696289,1056.153076 1371.207397,1058.457153 
M1250.165283,1062.690430 
	C1230.206421,1073.984253 1216.837280,1090.801025 1209.838745,1112.424927 
	C1208.080322,1117.857788 1208.258545,1124.164429 1208.705688,1129.980469 
	C1209.020874,1134.079346 1210.807739,1138.417358 1215.764282,1139.489502 
	C1222.660645,1136.974609 1226.908447,1131.709961 1230.068481,1125.968750 
	C1238.690796,1110.304077 1246.871948,1094.391113 1254.935303,1078.428589 
	C1256.527710,1075.276123 1257.161011,1071.506592 1257.607422,1067.942627 
	C1258.124268,1063.813721 1255.961182,1061.723999 1250.165283,1062.690430 
z"/>
<path fill="#F9EC03" opacity="1.000000" stroke="none" 
	d="
M2590.247070,1168.430176 
	C2589.364990,1181.265381 2588.556152,1193.185303 2587.695557,1205.101562 
	C2587.529053,1207.407593 2587.339600,1209.736938 2586.858643,1211.991089 
	C2583.670654,1226.923950 2570.212646,1234.337891 2555.897461,1229.143311 
	C2550.830811,1227.304810 2547.312500,1223.845093 2546.121338,1218.650146 
	C2544.571045,1211.887207 2542.729980,1205.035522 2542.450928,1198.163696 
	C2541.413818,1172.593506 2540.295898,1146.994263 2540.496338,1121.416016 
	C2540.673096,1098.872437 2542.524658,1076.340088 2543.767822,1053.809937 
	C2543.911865,1051.202393 2544.788574,1048.611084 2545.509277,1046.064087 
	C2547.872314,1037.713013 2551.624268,1029.820801 2560.904053,1028.161377 
	C2572.432617,1026.099854 2583.624756,1027.678467 2591.890869,1037.426514 
	C2596.689209,1043.085449 2597.201904,1050.002441 2596.878906,1057.045288 
	C2596.746582,1059.933105 2596.554443,1062.818237 2596.267334,1067.842529 
	C2599.631592,1064.903931 2601.718018,1063.507935 2603.256836,1061.656616 
	C2607.717529,1056.290039 2611.717041,1050.527466 2616.332520,1045.304199 
	C2628.551270,1031.476074 2644.210449,1033.495850 2652.674072,1049.795288 
	C2660.739746,1065.328735 2658.524902,1078.600342 2645.443359,1090.026978 
	C2640.967773,1093.936401 2635.648193,1096.864258 2630.849365,1100.423096 
	C2621.783203,1107.146729 2612.273193,1113.417114 2604.025146,1121.041138 
	C2599.656250,1125.079346 2596.180908,1131.222900 2594.728760,1137.023315 
	C2592.248047,1146.935181 2591.675781,1157.324707 2590.247070,1168.430176 
z"/>
<path fill="#F9EC03" opacity="1.000000" stroke="none" 
	d="
M2838.294922,899.821960 
	C2871.593262,916.763855 2904.217041,933.397827 2936.821289,950.070007 
	C2940.076416,951.734619 2943.452881,953.310730 2946.358398,955.482727 
	C2954.645996,961.678223 2953.946777,972.755005 2944.884521,977.770142 
	C2941.434570,979.679138 2937.485840,980.733093 2933.698975,981.977051 
	C2922.957520,985.505249 2912.219727,989.053589 2901.401367,992.333130 
	C2897.270996,993.585266 2894.576904,995.786499 2892.802246,999.791199 
	C2888.624512,1009.218567 2884.144287,1018.514160 2879.670166,1027.807129 
	C2877.508789,1032.296997 2875.530029,1036.972778 2872.689941,1041.017700 
	C2866.404541,1049.968750 2856.473877,1049.739746 2850.650391,1040.652344 
	C2848.698486,1037.606689 2847.265381,1034.145386 2846.075195,1030.708008 
	C2832.577881,991.730530 2819.173584,952.720764 2805.740479,913.721008 
	C2805.523682,913.091187 2805.206055,912.492188 2805.030518,911.852722 
	C2803.306641,905.576172 2802.175781,899.243652 2807.499268,894.090881 
	C2812.987793,888.778320 2819.135742,890.625000 2825.081543,893.317810 
	C2829.325928,895.239929 2833.441895,897.445618 2838.294922,899.821960 
z"/>
<path fill="#F9ED0B" opacity="1.000000" stroke="none" 
	d="
M2012.909424,965.965210 
	C2017.112183,965.687988 2020.434814,965.625610 2023.745972,965.396484 
	C2028.235840,965.085754 2031.971313,966.119385 2032.348755,971.308228 
	C2032.698975,976.122742 2030.154175,978.564880 2025.145386,978.716370 
	C2019.857300,978.876221 2014.581299,979.463501 2009.302612,979.897156 
	C2002.044800,980.493469 1994.796753,981.229675 1987.531372,981.704773 
	C1980.221558,982.182739 1976.495850,979.816650 1976.329102,974.931763 
	C1976.178345,970.510742 1979.555054,967.862793 1986.210693,967.455139 
	C1994.810547,966.928406 2003.419312,966.548767 2012.909424,965.965210 
z"/>
<path fill="#F9ED0B" opacity="1.000000" stroke="none" 
	d="
M1913.680664,972.247253 
	C1922.508911,971.624878 1930.418823,970.976074 1938.333496,970.392090 
	C1943.902832,969.981140 1947.366211,972.442139 1947.676392,976.921448 
	C1947.983276,981.353699 1945.019165,984.226135 1939.411987,984.551025 
	C1926.520996,985.297913 1913.622192,985.908875 1900.727295,986.589783 
	C1896.483276,986.813904 1892.505737,986.497864 1891.706543,981.173279 
	C1891.089600,977.062195 1894.274658,974.096436 1899.932983,973.441406 
	C1904.199097,972.947510 1908.486450,972.639343 1913.680664,972.247253 
z"/>
<path fill="#F9ED0B" opacity="1.000000" stroke="none" 
	d="
M2257.285156,950.151489 
	C2264.802734,949.494141 2271.395020,948.779907 2278.006348,948.351196 
	C2283.124512,948.019226 2286.099365,950.409302 2286.470703,954.683655 
	C2286.872559,959.313293 2284.770508,962.049255 2279.492676,962.404236 
	C2265.921875,963.316956 2252.332520,964.040222 2238.739502,964.501160 
	C2233.393311,964.682312 2230.469482,962.041809 2230.377686,958.168701 
	C2230.287109,954.344971 2233.030273,951.950439 2238.523193,951.453186 
	C2244.460205,950.915894 2250.418945,950.619202 2257.285156,950.151489 
z"/>
<path fill="#F9ED0B" opacity="1.000000" stroke="none" 
	d="
M1850.583252,990.525879 
	C1840.516235,991.108826 1831.308472,991.645935 1822.101318,992.196655 
	C1820.454468,992.295166 1818.812378,992.535767 1817.165649,992.563721 
	C1810.169922,992.682434 1808.032227,991.399414 1807.487305,986.859985 
	C1806.875244,981.762146 1809.376709,978.864685 1815.914795,978.377686 
	C1828.406128,977.447266 1840.921997,976.734314 1853.440552,976.328552 
	C1860.444824,976.101562 1862.281006,977.727112 1862.513672,982.546936 
	C1862.747192,987.383484 1861.336914,988.675537 1854.375244,989.985901 
	C1853.400879,990.169250 1852.420288,990.319214 1850.583252,990.525879 
z"/>
<path fill="#F9ED0B" opacity="1.000000" stroke="none" 
	d="
M2708.177002,922.976440 
	C2710.773926,931.626343 2710.044189,933.555969 2702.938721,934.485107 
	C2694.408936,935.600464 2685.776367,935.935608 2677.186035,936.580017 
	C2671.909424,936.975769 2666.630615,937.560608 2661.349365,937.599670 
	C2657.760010,937.626343 2654.859863,935.897827 2654.367432,931.881836 
	C2653.833740,927.530151 2656.086426,924.175293 2660.139404,923.968994 
	C2675.957764,923.164185 2691.805420,922.941833 2708.177002,922.976440 
z"/>
<path fill="#F9ED0B" opacity="1.000000" stroke="none" 
	d="
M2614.677490,940.583374 
	C2601.596924,941.251099 2589.392090,942.183472 2577.172119,942.473083 
	C2570.616455,942.628540 2567.291016,937.769409 2570.394043,933.043457 
	C2571.596924,931.211670 2574.581299,929.831421 2576.899902,929.577576 
	C2586.091797,928.570984 2595.341309,928.088013 2604.570068,927.418762 
	C2607.532715,927.203857 2610.508789,927.117310 2613.458496,926.790283 
	C2620.082031,926.056091 2624.704102,928.162537 2625.542725,932.432739 
	C2626.389160,936.743286 2623.409424,939.172180 2614.677490,940.583374 
z"/>
<path fill="#F9ED0B" opacity="1.000000" stroke="none" 
	d="
M2344.927490,958.266174 
	C2338.755127,958.827820 2333.492432,959.299072 2328.220947,959.624512 
	C2325.911865,959.767029 2323.524902,959.931763 2321.279785,959.514160 
	C2318.158936,958.933594 2315.841553,957.184692 2315.541748,953.607544 
	C2315.213135,949.684509 2317.010498,946.896729 2320.689941,946.265625 
	C2325.874512,945.376404 2331.181396,945.129333 2336.448242,944.807373 
	C2345.365479,944.262268 2354.287842,943.673889 2363.216064,943.493347 
	C2368.585938,943.384705 2371.704834,945.899231 2371.562988,949.747864 
	C2371.406006,954.012207 2368.943359,956.297729 2364.598877,956.603699 
	C2358.339355,957.044495 2352.088379,957.606384 2344.927490,958.266174 
z"/>
<path fill="#F9ED0C" opacity="1.000000" stroke="none" 
	d="
M2534.380371,932.296753 
	C2539.624756,933.382812 2541.075439,936.442444 2540.376221,940.554993 
	C2539.702637,944.517761 2536.771729,945.610535 2533.077148,945.842651 
	C2519.863770,946.672913 2506.668457,947.814087 2493.448975,948.513855 
	C2488.263672,948.788269 2484.074463,945.268005 2484.515381,941.431702 
	C2485.060547,936.692627 2488.610840,934.665894 2492.871826,934.395508 
	C2506.422363,933.535645 2519.989990,932.948059 2534.380371,932.296753 
z"/>
<path fill="#F9ED0E" opacity="1.000000" stroke="none" 
	d="
M1757.418335,982.235718 
	C1761.952759,981.977234 1765.576294,981.589844 1769.207397,981.494568 
	C1774.602051,981.353027 1778.337524,984.244080 1778.386353,988.356445 
	C1778.430908,992.124634 1775.328125,995.340698 1770.497192,995.661316 
	C1757.312622,996.536316 1744.108398,997.114502 1730.914429,997.851196 
	C1726.353516,998.105774 1722.983398,996.605103 1722.383911,991.687988 
	C1721.861572,987.405579 1724.918091,984.781311 1730.840210,984.261047 
	C1739.390381,983.510010 1747.953247,982.904968 1757.418335,982.235718 
z"/>
<path fill="#F9ED0B" opacity="1.000000" stroke="none" 
	d="
M1350.299683,1360.996338 
	C1347.488403,1361.392212 1345.461548,1361.835938 1343.549805,1361.538574 
	C1339.408691,1360.894043 1337.285278,1358.477539 1337.391968,1354.007812 
	C1337.493774,1349.744995 1339.968994,1348.013428 1343.592651,1347.682739 
	C1357.061646,1346.453979 1370.539917,1345.304810 1384.030762,1344.353516 
	C1388.201782,1344.059448 1390.986450,1346.324219 1391.602905,1350.607666 
	C1392.209839,1354.825928 1389.540527,1358.090088 1384.751831,1358.472046 
	C1373.558350,1359.364990 1362.342896,1359.980469 1350.299683,1360.996338 
z"/>
<path fill="#F9ED0C" opacity="1.000000" stroke="none" 
	d="
M2767.437744,930.599670 
	C2759.887695,930.986389 2753.276611,931.301819 2746.677002,931.779358 
	C2742.340332,932.093201 2739.551270,930.374451 2738.806641,926.043579 
	C2738.172363,922.356262 2741.364014,918.745117 2746.003174,918.324890 
	C2755.567383,917.458557 2765.160889,916.910400 2774.743164,916.245178 
	C2778.712646,915.969604 2782.683350,915.552856 2786.656494,915.516296 
	C2792.223877,915.465027 2794.457275,917.484802 2794.559570,922.178040 
	C2794.663330,926.959045 2792.731689,929.201843 2787.275635,929.669861 
	C2780.997314,930.208496 2774.681152,930.307373 2767.437744,930.599670 
z"/>
<path fill="#F9ED0C" opacity="1.000000" stroke="none" 
	d="
M2091.832275,960.454651 
	C2097.384277,960.086609 2102.011475,959.880859 2106.635498,959.620056 
	C2112.869629,959.268433 2116.994873,961.591675 2117.500244,965.791199 
	C2117.998047,969.926025 2114.072754,973.371826 2108.052246,973.725342 
	C2095.187744,974.480591 2082.315918,975.114014 2069.443604,975.734436 
	C2065.979736,975.901428 2062.750977,975.494324 2061.682617,971.282532 
	C2060.456055,966.447632 2062.632812,963.012146 2068.206299,962.361694 
	C2075.739258,961.482544 2083.336426,961.156067 2091.832275,960.454651 
z"/>
<path fill="#F9ED0C" opacity="1.000000" stroke="none" 
	d="
M2183.907227,954.439453 
	C2187.813721,954.288025 2190.799805,954.113098 2193.766357,954.280884 
	C2199.221924,954.589600 2201.808838,956.805725 2201.683350,961.017395 
	C2201.552246,965.414978 2199.008545,967.467773 2194.739746,967.786316 
	C2186.526611,968.399170 2178.323486,969.148621 2170.108643,969.737793 
	C2164.841064,970.115601 2159.560303,970.517029 2154.285156,970.524963 
	C2149.009277,970.532837 2146.354980,968.217590 2146.022461,964.026123 
	C2145.697266,959.927734 2148.156006,956.949951 2153.385254,956.473511 
	C2163.225830,955.576965 2173.111328,955.177002 2183.907227,954.439453 
z"/>
<path fill="#F9ED0B" opacity="1.000000" stroke="none" 
	d="
M1419.451416,1348.132324 
	C1419.663696,1343.190674 1422.488037,1341.828003 1426.089355,1341.512451 
	C1438.881348,1340.391968 1451.668091,1339.170166 1464.479614,1338.333984 
	C1470.325195,1337.952271 1473.478027,1340.614746 1473.672607,1345.005249 
	C1473.855957,1349.143188 1470.759155,1352.004028 1464.922241,1352.480469 
	C1452.448120,1353.499023 1439.960815,1354.370850 1427.469727,1355.159180 
	C1423.103149,1355.434692 1419.542969,1354.233765 1419.451416,1348.132324 
z"/>
<path fill="#F9ED0B" opacity="1.000000" stroke="none" 
	d="
M1519.254395,1348.218262 
	C1515.733521,1348.445068 1513.080444,1348.587769 1510.428345,1348.568115 
	C1506.458618,1348.538818 1502.111572,1349.111450 1501.503418,1343.273438 
	C1500.987061,1338.317017 1502.588501,1336.359131 1509.087280,1335.364990 
	C1514.304321,1334.567017 1519.594604,1334.218384 1524.861816,1333.784180 
	C1531.777710,1333.213989 1538.696045,1332.505127 1545.625732,1332.318604 
	C1552.768677,1332.126343 1555.646484,1334.267456 1555.707153,1338.914917 
	C1555.762451,1343.158691 1553.472046,1345.171997 1546.805420,1345.858887 
	C1537.929688,1346.773560 1529.018433,1347.343628 1519.254395,1348.218262 
z"/>
<path fill="#F9ED0B" opacity="1.000000" stroke="none" 
	d="
M1629.459229,1339.740723 
	C1617.714600,1340.644775 1606.804565,1341.554077 1595.890503,1342.411377 
	C1593.903687,1342.567627 1591.899658,1342.567505 1589.904663,1342.544067 
	C1585.946167,1342.497681 1583.682495,1340.534790 1583.471191,1336.510254 
	C1583.278076,1332.831665 1584.242554,1329.761597 1588.485474,1329.218994 
	C1592.418213,1328.715942 1596.386597,1328.488037 1600.341309,1328.161743 
	C1609.595459,1327.397949 1618.861328,1326.754639 1628.101196,1325.846680 
	C1632.625488,1325.401978 1636.445068,1326.427002 1637.412964,1331.136108 
	C1638.487183,1336.362183 1635.558228,1339.252075 1629.459229,1339.740723 
z"/>
<path fill="#F9ED0E" opacity="1.000000" stroke="none" 
	d="
M2412.522949,953.766479 
	C2402.516357,953.534668 2400.635742,952.523804 2400.307373,947.697876 
	C2399.959229,942.579834 2402.386719,940.879822 2411.535645,940.145386 
	C2423.055176,939.220581 2434.580078,938.347290 2446.110352,937.568604 
	C2452.468750,937.139221 2455.185303,938.935486 2455.716553,943.532837 
	C2456.312012,948.685181 2453.646484,951.309143 2447.086426,951.738647 
	C2435.877197,952.472412 2424.661133,953.096436 2412.522949,953.766479 
z"/>
<path fill="#F9ED0C" opacity="1.000000" stroke="none" 
	d="
M1180.340820,1340.374023 
	C1185.027954,1336.897827 1188.507935,1338.571899 1191.415771,1341.778076 
	C1199.402588,1350.584106 1209.323120,1355.132446 1221.072144,1356.412964 
	C1225.916138,1356.941040 1228.415771,1360.559814 1227.579346,1364.653198 
	C1226.720093,1368.858643 1224.012695,1370.909912 1219.674805,1370.468018 
	C1204.553833,1368.927734 1191.514648,1363.028564 1181.142822,1351.745728 
	C1178.188599,1348.532104 1177.074463,1344.896729 1180.340820,1340.374023 
z"/>
<path fill="#F9ED0B" opacity="1.000000" stroke="none" 
	d="
M1666.235229,1325.563232 
	C1669.002075,1324.019897 1671.363647,1322.587646 1673.841187,1322.346802 
	C1685.320557,1321.230469 1696.831909,1320.442017 1708.332520,1319.546631 
	C1709.320435,1319.469727 1710.315918,1319.412720 1711.305054,1319.443115 
	C1716.534180,1319.603027 1719.394165,1321.834106 1719.653076,1325.913940 
	C1719.885010,1329.567505 1716.788696,1332.981445 1712.078369,1333.609131 
	C1707.835571,1334.174316 1703.520386,1334.184692 1699.240234,1334.483276 
	C1691.354126,1335.033325 1683.470947,1335.625000 1675.585327,1336.181641 
	C1666.910400,1336.794189 1665.716064,1335.559937 1666.235229,1325.563232 
z"/>
<path fill="#F9ED0C" opacity="1.000000" stroke="none" 
	d="
M1309.569824,1356.476318 
	C1309.920410,1361.754395 1307.516724,1364.101318 1303.275024,1364.478027 
	C1290.108154,1365.647095 1276.931763,1366.714111 1263.752075,1367.730591 
	C1259.226685,1368.079590 1255.867798,1366.578735 1255.495239,1361.406372 
	C1255.125488,1356.272583 1258.005371,1354.315552 1262.703369,1354.012329 
	C1275.574829,1353.182129 1288.441284,1352.276978 1301.310547,1351.412231 
	C1304.896606,1351.171265 1307.901489,1352.071655 1309.569824,1356.476318 
z"/>
<path fill="#F9ED0B" opacity="1.000000" stroke="none" 
	d="
M2159.803711,1298.863281 
	C2152.307617,1299.539429 2145.722656,1300.169312 2139.122803,1300.509766 
	C2134.968994,1300.723999 2132.022705,1298.943481 2131.537598,1294.414307 
	C2131.042725,1289.795288 2133.933594,1287.589111 2137.802490,1286.880127 
	C2141.679443,1286.169678 2145.699463,1286.248169 2149.655518,1285.963867 
	C2158.232910,1285.347412 2166.801758,1284.530518 2175.389404,1284.162842 
	C2181.375488,1283.906372 2184.315918,1286.330688 2184.472656,1290.773804 
	C2184.618408,1294.902588 2182.304443,1297.119751 2176.581787,1297.699219 
	C2171.311035,1298.232910 2166.000977,1298.378174 2159.803711,1298.863281 
z"/>
<path fill="#F9ED0C" opacity="1.000000" stroke="none" 
	d="
M2053.440918,1302.529785 
	C2051.335938,1295.560791 2055.434082,1292.981323 2060.327637,1292.518433 
	C2072.881836,1291.330933 2085.502686,1290.832397 2098.101074,1290.134644 
	C2101.836426,1289.927612 2104.627197,1291.484131 2105.603516,1295.293945 
	C2106.748047,1299.759766 2104.108643,1303.066040 2098.249023,1303.668823 
	C2089.014893,1304.618774 2079.733643,1305.111572 2070.469727,1305.766113 
	C2066.495361,1306.046875 2062.491699,1306.593384 2058.549805,1306.320557 
	C2056.903809,1306.206543 2055.383301,1304.273926 2053.440918,1302.529785 
z"/>
<path fill="#F9ED0E" opacity="1.000000" stroke="none" 
	d="
M2003.632324,1310.746094 
	C1995.802612,1311.425659 1988.895386,1312.108154 1981.972900,1312.558716 
	C1977.817871,1312.828979 1974.843628,1311.145386 1974.306763,1306.612183 
	C1973.769043,1302.070801 1976.432007,1299.640747 1980.375488,1298.943604 
	C1984.587280,1298.198853 1988.932861,1298.196533 1993.222778,1297.910156 
	C2001.800049,1297.337646 2010.372681,1296.566895 2018.959961,1296.317383 
	C2024.432739,1296.158325 2027.331787,1298.659424 2027.415894,1302.522705 
	C2027.491943,1306.012573 2024.129028,1309.235718 2019.428467,1309.709351 
	C2014.486938,1310.207275 2009.509766,1310.352417 2003.632324,1310.746094 
z"/>
<path fill="#F9ED0C" opacity="1.000000" stroke="none" 
	d="
M2243.913086,1283.299316 
	C2245.047852,1289.171997 2243.067139,1292.334351 2237.626221,1292.852539 
	C2231.062256,1293.477783 2224.497803,1294.184448 2217.916504,1294.504272 
	C2213.902100,1294.699097 2210.810303,1293.061401 2210.286377,1288.473511 
	C2209.765625,1283.914185 2211.717041,1281.140991 2217.045898,1280.540161 
	C2223.602051,1279.800903 2230.243652,1279.468384 2236.835938,1279.595703 
	C2239.133057,1279.639893 2241.393799,1281.574097 2243.913086,1283.299316 
z"/>
<path fill="#F9ED0C" opacity="1.000000" stroke="none" 
	d="
M1448.696045,1016.563354 
	C1444.246582,1016.847778 1440.633423,1017.064575 1437.029541,1017.384277 
	C1430.937256,1017.924866 1426.788086,1015.569824 1426.345337,1011.243347 
	C1425.863647,1006.539490 1429.001831,1003.826538 1435.362549,1003.405579 
	C1440.953003,1003.035645 1446.538574,1002.591064 1452.131104,1002.258423 
	C1456.599976,1001.992615 1460.060547,1003.259644 1460.494751,1008.452454 
	C1460.917236,1013.507385 1458.241333,1015.707458 1453.462646,1015.969604 
	C1452.147339,1016.041748 1450.844971,1016.344910 1448.696045,1016.563354 
z"/>
<path fill="#F9ED0E" opacity="1.000000" stroke="none" 
	d="
M1921.129150,1317.484863 
	C1915.662720,1316.362915 1913.447632,1313.595703 1914.403320,1308.788940 
	C1915.305054,1304.253052 1918.779541,1303.562012 1922.668579,1303.373291 
	C1928.595825,1303.085693 1934.513794,1302.343262 1940.437744,1302.320923 
	C1946.057861,1302.299683 1948.571899,1304.544434 1948.500854,1308.743286 
	C1948.415161,1313.803711 1945.169678,1315.431274 1940.672974,1315.789185 
	C1934.427124,1316.286255 1928.195557,1316.961914 1921.129150,1317.484863 
z"/>
<path fill="#F9ED0E" opacity="1.000000" stroke="none" 
	d="
M1666.908203,988.258423 
	C1673.981201,987.965698 1680.251465,987.604065 1686.526733,987.450317 
	C1690.793823,987.345703 1693.532471,989.369751 1693.660034,993.866577 
	C1693.770996,997.774963 1691.655884,1000.118713 1687.782471,1000.498474 
	C1681.548340,1001.109680 1675.278320,1001.373230 1669.054688,1002.064331 
	C1664.754395,1002.541809 1660.899536,1002.496704 1659.705933,997.330627 
	C1658.488770,992.061829 1660.906860,989.127747 1666.908203,988.258423 
z"/>
<path fill="#F9ED0C" opacity="1.000000" stroke="none" 
	d="
M1365.845703,1007.947571 
	C1371.953369,1007.664124 1377.258667,1007.555115 1382.563599,1007.428589 
	C1387.130981,1007.319580 1389.480347,1009.977112 1389.505615,1014.101135 
	C1389.528320,1017.793823 1387.180542,1020.226135 1383.240112,1020.498962 
	C1376.644165,1020.955811 1370.045044,1021.380676 1363.442993,1021.737061 
	C1359.460938,1021.952148 1356.000488,1021.137573 1355.544434,1016.286194 
	C1355.100952,1011.568604 1356.997681,1008.585022 1362.058594,1008.257446 
	C1363.052368,1008.193176 1364.048218,1008.161255 1365.845703,1007.947571 
z"/>
<path fill="#F9ED0E" opacity="1.000000" stroke="none" 
	d="
M1781.667725,1321.898438 
	C1779.670410,1324.598145 1777.895020,1327.867554 1775.670898,1328.208374 
	C1768.534424,1329.301880 1761.235229,1329.393433 1753.991699,1329.707886 
	C1750.083740,1329.877441 1747.727295,1327.941284 1747.498657,1323.879028 
	C1747.260498,1319.649902 1748.918701,1316.768433 1753.427490,1316.321533 
	C1760.314575,1315.639160 1767.207642,1314.754517 1774.111816,1314.611694 
	C1778.002197,1314.531250 1780.890869,1316.938354 1781.667725,1321.898438 
z"/>
<path fill="#FFFFFB" opacity="1.000000" stroke="none" 
	d="
M1941.698730,1122.125244 
	C1940.561157,1142.291626 1938.458130,1161.330078 1929.402954,1178.848145 
	C1922.315552,1192.558960 1911.638428,1199.833740 1895.678589,1198.357422 
	C1887.388794,1197.590454 1885.441528,1196.370483 1885.793823,1188.194092 
	C1886.377686,1174.639526 1887.311035,1161.078613 1888.741821,1147.588623 
	C1889.925415,1136.427490 1891.388550,1125.210815 1893.970703,1114.313110 
	C1895.692017,1107.048828 1898.862915,1099.860840 1902.721802,1093.442383 
	C1906.887451,1086.513794 1914.056885,1083.043579 1922.298340,1083.952759 
	C1930.440186,1084.851196 1935.532959,1090.396118 1937.553101,1097.882568 
	C1939.603271,1105.479736 1940.369995,1113.423340 1941.698730,1122.125244 
z"/>
<path fill="#FFFEF9" opacity="1.000000" stroke="none" 
	d="
M2730.558594,1118.394409 
	C2721.254395,1138.370728 2712.469971,1157.746216 2699.141846,1174.612061 
	C2695.955566,1178.644531 2692.589600,1183.426636 2687.201904,1181.889160 
	C2681.523682,1180.269043 2679.981689,1174.109009 2680.088867,1168.857666 
	C2680.229004,1161.991089 2680.574219,1154.710327 2682.924316,1148.385620 
	C2690.153564,1128.930908 2702.591797,1113.113892 2719.624756,1101.106934 
	C2723.624756,1098.287354 2728.325928,1094.325317 2733.065918,1097.489014 
	C2738.421631,1101.063477 2734.408936,1106.586670 2733.405029,1111.212158 
	C2732.918457,1113.453247 2731.758301,1115.548218 2730.558594,1118.394409 
z"/>
<path fill="#FFFEF6" opacity="1.000000" stroke="none" 
	d="
M2433.353760,1097.406372 
	C2437.956787,1089.252441 2441.886475,1081.556152 2446.710205,1074.468262 
	C2449.465576,1070.419678 2453.607910,1066.690430 2459.355957,1069.080444 
	C2464.571045,1071.248901 2466.510742,1075.873657 2466.259766,1081.251953 
	C2466.091553,1084.853760 2465.915771,1088.664917 2464.656494,1091.968140 
	C2460.440674,1103.027588 2453.667969,1112.400391 2443.965820,1119.312866 
	C2440.332031,1121.901733 2436.160156,1125.456421 2431.405518,1122.145630 
	C2426.782471,1118.926514 2427.905273,1114.008423 2429.321777,1109.434448 
	C2430.496338,1105.640991 2431.805176,1101.889038 2433.353760,1097.406372 
z"/>
<path fill="#FFFFFA" opacity="1.000000" stroke="none" 
	d="
M2095.574707,1182.280518 
	C2083.547607,1185.392334 2077.814209,1182.817627 2075.934570,1171.792480 
	C2074.224121,1161.760498 2073.929932,1151.314819 2074.421387,1141.119507 
	C2075.192871,1125.099731 2078.891846,1109.506348 2085.886230,1094.996948 
	C2088.873779,1088.799316 2092.990967,1083.058350 2097.177246,1077.552734 
	C2100.983887,1072.546021 2106.683838,1069.507446 2112.864258,1071.050781 
	C2119.136475,1072.616943 2120.355713,1078.957886 2121.703125,1084.500122 
	C2124.905029,1097.669434 2123.860596,1110.888672 2121.902588,1124.081421 
	C2119.645020,1139.290649 2116.103516,1154.206787 2108.210693,1167.548950 
	C2105.078125,1172.844238 2100.289307,1177.159546 2095.574707,1182.280518 
z"/>
<path fill="#FFFEF6" opacity="1.000000" stroke="none" 
	d="
M1250.905029,1062.495850 
	C1255.961182,1061.723999 1258.124268,1063.813721 1257.607422,1067.942627 
	C1257.161011,1071.506592 1256.527710,1075.276123 1254.935303,1078.428589 
	C1246.871948,1094.391113 1238.690796,1110.304077 1230.068481,1125.968750 
	C1226.908447,1131.709961 1222.660645,1136.974609 1215.764282,1139.489502 
	C1210.807739,1138.417358 1209.020874,1134.079346 1208.705688,1129.980469 
	C1208.258545,1124.164429 1208.080322,1117.857788 1209.838745,1112.424927 
	C1216.837280,1090.801025 1230.206421,1073.984253 1250.905029,1062.495850 
z"/>
</svg>